<?xml version="1.0" encoding="utf-8"?>
<!-- Svg Vector Icons : http://www.onlinewebfonts.com/icon -->
<!DOCTYPE svg PUBLIC "-//W3C//DTD SVG 1.1//EN" "http://www.w3.org/Graphics/SVG/1.1/DTD/svg11.dtd">
<svg version="1.1" xmlns="http://www.w3.org/2000/svg" xmlns:xlink="http://www.w3.org/1999/xlink" x="0px" y="0px" viewBox="0 0 100 100" enable-background="new 0 0 100 100" xml:space="preserve">
<metadata> Svg Vector Icons : http://www.onlinewebfonts.com/icon </metadata>
<g><path d="M551.2,208.8c-21.4-4.5-42.3,9.2-46.9,30.6c-4.4,21.4,9.3,42.3,30.7,46.8c103.4,21.6,169.9,123.3,148.3,226.7c-4.4,21.4,9.2,42.3,30.6,46.8c21.4,4.5,42.3-9.2,46.8-30.6C791.2,383,697.2,239.3,551.2,208.8z"/><path d="M592.5,10.8c-21.3-4.5-42.3,9.2-46.7,30.6c-4.5,21.4,9.2,42.3,30.6,46.8c212.5,44.4,349.2,253.4,304.8,465.9c-4.5,21.4,9.3,42.3,30.6,46.8c21.4,4.5,42.4-9.2,46.9-30.6C1012,315.2,847.7,64.2,592.5,10.8z"/><path d="M587.3,636.3c-6-9.2-18.2-11.9-27.6-6.1l-5.9,3.8c-16,10.4-62,40.1-66.5,42.8c-1.1,0.7-2.3,1.2-3.6,1.6c-31.5,8.7-115.3-73.5-164.5-178.2c-29.5-63-29.5-101-17.6-109.4l72.7-47.1c4.5-2.9,7.7-7.5,8.8-12.8c1.1-5.2,0.2-10.7-2.8-15.2L223,73.1c-2.9-4.5-7.5-7.7-12.8-8.8c-5.3-1.1-10.7-0.1-15.3,2.8l-11.3,7.4c-20.5,13.3-61.4,39.9-62.5,40.6l-2.5,1.7c-91.4,62-165.6,180.3,73.1,548.5c159.9,246.6,294,351,410.1,319.1h0c25.3-7,44.9-19,59.2-27.8l4.5-2.7c3.1-1.9,73.1-47,75-48.4c8.9-6.3,11.1-18.5,5.2-27.6L587.3,636.3z"/></g>
</svg>